# xmcd
#
# Track frame offsets:
#	150
#	20985
#	38315
#	63632
#	75487
#	100655
#	126375
#	143495
#	157817
#	186367
#	206892
#	226217
#
# Disc length: 3263 seconds
#
# Revision: 1
# Processed by: cddbd v1.5.1PL2 Copyright (c) Steve Scherf et al.
# Submitted via: audiograbber 1.83.01
#
DISCID=9a0cbd0c
DTITLE=Steve Erickson - Dakota
DYEAR=2002
DGENRE=Country
TTITLE0=Dakota
TTITLE1=Ain't That a Peach
TTITLE2=Lifetime Love Affair
TTITLE3=I've Had it With You
TTITLE4=You're New to Me
TTITLE5=Sister's Cryin
TTITLE6=Good as Gold
TTITLE7=Precious Time
TTITLE8=Heaven's Whisper
TTITLE9=Who's Jennifer
TTITLE10=Rock n Roll Singer in a Cowboy Hat
TTITLE11=As I Take Her Hand (A Husband's Prayer)
EXTD=
EXTT0=
EXTT1=
EXTT2=
EXTT3=
EXTT4=
EXTT5=
EXTT6=
EXTT7=
EXTT8=
EXTT9=
EXTT10=
EXTT11=
PLAYORDER=
